<?xml version="1.0" encoding="utf-8"?>
<!-- Generated by Mocodo 4.2.4 -->
<svg width="666" height="430" viewBox="0 0 666 430" xmlns="http://www.w3.org/2000/svg">
<rect x="0" y="0" width="666" height="430" fill="none" stroke="none" stroke-width="0"/>

<!-- Association OWN -->
<g>
	<line x1="135" y1="81" x2="368" y2="81" stroke="#000000" stroke-width="1.5"/>
	<line x1="554" y1="81" x2="368" y2="81" stroke="#000000" stroke-width="1.5"/>
	<g>
		<path d="M390 53 a14 14 90 0 1 14 14 V80 h-72 V67 a14 14 90 0 1 14 -14" fill="#FFFFFF" stroke="#FFFFFF" stroke-width="0"/>
		<path d="M404 80 v15 a14 14 90 0 1 -14 14 H346 a14 14 90 0 1 -14 -14 V80 H72" fill="#FFFFFF" stroke="#FFFFFF" stroke-width="0"/>
		<rect x="332" y="53" width="72" height="56" fill="none" rx="14" stroke="#000000" stroke-width="3"/>
		<line x1="332" y1="80" x2="404" y2="80" stroke="#000000" stroke-width="1.5"/>
		<text x="342" y="73.3" fill="#000000" font-family="Arial Black" font-size="13">own</text>
	</g>
	<text x="244" y="98" fill="#000000" font-family="Arial" font-size="12">1,1</text>
	<text x="413" y="98" fill="#000000" font-family="Arial" font-size="12">1,1</text>
</g>

<!-- Association REGISTER -->
<g>
	<line x1="135" y1="81" x2="135" y2="233" stroke="#000000" stroke-width="1.5"/>
	<line x1="135" y1="367" x2="135" y2="233" stroke="#000000" stroke-width="1.5"/>
	<g>
		<path d="M179 205 a14 14 90 0 1 14 14 V232 h-116 V219 a14 14 90 0 1 14 -14" fill="#FFFFFF" stroke="#FFFFFF" stroke-width="0"/>
		<path d="M193 232 v15 a14 14 90 0 1 -14 14 H91 a14 14 90 0 1 -14 -14 V232 H116" fill="#FFFFFF" stroke="#FFFFFF" stroke-width="0"/>
		<rect x="77" y="205" width="116" height="56" fill="none" rx="14" stroke="#000000" stroke-width="3"/>
		<line x1="77" y1="232" x2="193" y2="232" stroke="#000000" stroke-width="1.5"/>
		<text x="86" y="225.3" fill="#000000" font-family="Arial Black" font-size="13">register</text>
	</g>
	<text x="141" y="170" fill="#000000" font-family="Arial" font-size="12">1,N</text>
	<text x="141" y="304" fill="#000000" font-family="Arial" font-size="12">1,1</text>
</g>

<!-- Association EXECUTE -->
<g>
	<line x1="135" y1="367" x2="368" y2="367" stroke="#000000" stroke-width="1.5"/>
	<line x1="368" y1="233" x2="368" y2="367" stroke="#000000" stroke-width="1.5"/>
	<g>
		<path d="M414 339 a14 14 90 0 1 14 14 V366 h-120 V353 a14 14 90 0 1 14 -14" fill="#FFFFFF" stroke="#FFFFFF" stroke-width="0"/>
		<path d="M428 366 v15 a14 14 90 0 1 -14 14 H322 a14 14 90 0 1 -14 -14 V366 H120" fill="#FFFFFF" stroke="#FFFFFF" stroke-width="0"/>
		<rect x="308" y="339" width="120" height="56" fill="none" rx="14" stroke="#000000" stroke-width="3"/>
		<line x1="308" y1="366" x2="428" y2="366" stroke="#000000" stroke-width="1.5"/>
		<text x="317" y="359.3" fill="#000000" font-family="Arial Black" font-size="13">execute</text>
	</g>
	<text x="267" y="384" fill="#000000" font-family="Arial" font-size="12">1,N</text>
	<text x="374" y="304" fill="#000000" font-family="Arial" font-size="12">1,1</text>
</g>

<!-- Entity ACCOUNT -->
<g>
	<g>
		<rect x="32" y="9" width="206" height="28" fill="#FFFFFF" stroke="none" stroke-width="0" opacity="1"/>
		<rect x="32" y="37" width="206" height="116" fill="#FFFFFF" stroke="none" stroke-width="0" opacity="1"/>
		<rect x="32" y="9" width="206" height="144" fill="none" stroke="#000000" stroke-width="3" opacity="1"/>
		<line x1="32" y1="37" x2="238" y2="37" stroke="#000000" stroke-width="1.5"/>
	</g>
	<text x="84" y="29.3" fill="#000000" font-family="Arial Black" font-size="13">account</text>
	<text x="40" y="53.2" fill="#000000" font-family="Arial" font-size="14">idAccount</text>
	<line x1="40" y1="56" x2="154" y2="56" stroke="#000000" stroke-width="1.2"/>
	<text x="40" y="71.2" fill="#000000" font-family="Arial" font-size="14">firstname</text>
	<text x="40" y="89.2" fill="#000000" font-family="Arial" font-size="14">lastname</text>
	<text x="40" y="107.2" fill="#000000" font-family="Arial" font-size="14">birthdate</text>
	<text x="40" y="125.2" fill="#000000" font-family="Arial" font-size="14">monthlySalary</text>
	<text x="40" y="143.2" fill="#000000" font-family="Arial" font-size="14">authorizedCredit</text>
</g>

<!-- Entity BALANCEHISTORY -->
<g>
	<g>
		<rect x="451" y="27" width="206" height="28" fill="#FFFFFF" stroke="none" stroke-width="0" opacity="1"/>
		<rect x="451" y="55" width="206" height="80" fill="#FFFFFF" stroke="none" stroke-width="0" opacity="1"/>
		<rect x="451" y="27" width="206" height="108" fill="none" stroke="#000000" stroke-width="3" opacity="1"/>
		<line x1="451" y1="55" x2="657" y2="55" stroke="#000000" stroke-width="1.5"/>
	</g>
	<text x="460" y="47.3" fill="#000000" font-family="Arial Black" font-size="13">balanceHistory</text>
	<text x="459" y="71.2" fill="#000000" font-family="Arial" font-size="14">idBalance</text>
	<line x1="459" y1="74" x2="573" y2="74" stroke="#000000" stroke-width="1.2"/>
	<text x="459" y="89.2" fill="#000000" font-family="Arial" font-size="14">type</text>
	<text x="459" y="107.2" fill="#000000" font-family="Arial" font-size="14">amount</text>
	<text x="459" y="125.2" fill="#000000" font-family="Arial" font-size="14">date</text>
</g>

<!-- Entity TRANSACTION -->
<g>
	<g>
		<rect x="282" y="179" width="172" height="28" fill="#FFFFFF" stroke="none" stroke-width="0" opacity="1"/>
		<rect x="282" y="207" width="172" height="80" fill="#FFFFFF" stroke="none" stroke-width="0" opacity="1"/>
		<rect x="282" y="179" width="172" height="108" fill="none" stroke="#000000" stroke-width="3" opacity="1"/>
		<line x1="282" y1="207" x2="454" y2="207" stroke="#000000" stroke-width="1.5"/>
	</g>
	<text x="296" y="199.3" fill="#000000" font-family="Arial Black" font-size="13">transaction</text>
	<text x="290" y="223.2" fill="#000000" font-family="Arial" font-size="14">idTransaction</text>
	<line x1="290" y1="226" x2="445" y2="226" stroke="#000000" stroke-width="1.2"/>
	<text x="290" y="241.2" fill="#000000" font-family="Arial" font-size="14">debit</text>
	<text x="290" y="259.2" fill="#000000" font-family="Arial" font-size="14">credit</text>
	<text x="290" y="277.2" fill="#000000" font-family="Arial" font-size="14">date</text>
</g>

<!-- Entity TRANSACTIONGROUP -->
<g>
	<g>
		<rect x="9" y="313" width="252" height="28" fill="#FFFFFF" stroke="none" stroke-width="0" opacity="1"/>
		<rect x="9" y="341" width="252" height="80" fill="#FFFFFF" stroke="none" stroke-width="0" opacity="1"/>
		<rect x="9" y="313" width="252" height="108" fill="none" stroke="#000000" stroke-width="3" opacity="1"/>
		<line x1="9" y1="341" x2="261" y2="341" stroke="#000000" stroke-width="1.5"/>
	</g>
	<text x="26" y="333.3" fill="#000000" font-family="Arial Black" font-size="13">transactionGroup</text>
	<text x="17" y="357.2" fill="#000000" font-family="Arial" font-size="14">idTransactionHistory</text>
	<line x1="17" y1="360" x2="252" y2="360" stroke="#000000" stroke-width="1.2"/>
	<text x="17" y="375.2" fill="#000000" font-family="Arial" font-size="14">method</text>
	<text x="17" y="393.2" fill="#000000" font-family="Arial" font-size="14">description</text>
	<text x="17" y="411.2" fill="#000000" font-family="Arial" font-size="14">date</text>
</g>
</svg>