<?xml version="1.0" encoding="utf-8"?>
<!-- Generated by Mocodo 4.2.4 -->
<svg width="668" height="466" viewBox="0 0 668 466" xmlns="http://www.w3.org/2000/svg">
<rect x="0" y="0" width="668" height="466" fill="none" stroke="none" stroke-width="0"/>

<!-- Association EXECUTE -->
<g>
	<line x1="135" y1="72" x2="368" y2="72" stroke="#000000" stroke-width="1.5"/>
	<line x1="573" y1="72" x2="368" y2="72" stroke="#000000" stroke-width="1.5"/>
	<g>
		<path d="M414 44 a14 14 90 0 1 14 14 V71 h-120 V58 a14 14 90 0 1 14 -14" fill="#FFFFFF" stroke="#FFFFFF" stroke-width="0"/>
		<path d="M428 71 v15 a14 14 90 0 1 -14 14 H322 a14 14 90 0 1 -14 -14 V71 H120" fill="#FFFFFF" stroke="#FFFFFF" stroke-width="0"/>
		<rect x="308" y="44" width="120" height="56" fill="none" rx="14" stroke="#000000" stroke-width="3"/>
		<line x1="308" y1="71" x2="428" y2="71" stroke="#000000" stroke-width="1.5"/>
		<text x="317" y="64.3" fill="#000000" font-family="Arial Black" font-size="13">execute</text>
	</g>
	<text x="267" y="89" fill="#000000" font-family="Arial" font-size="12">1,N</text>
	<text x="449" y="89" fill="#000000" font-family="Arial" font-size="12">1,1</text>
</g>

<!-- Association REGISTER -->
<g>
	<line x1="368" y1="242" x2="135" y2="242" stroke="#000000" stroke-width="1.5"/>
	<line x1="135" y1="72" x2="135" y2="242" stroke="#000000" stroke-width="1.5"/>
	<g>
		<path d="M179 214 a14 14 90 0 1 14 14 V241 h-116 V228 a14 14 90 0 1 14 -14" fill="#FFFFFF" stroke="#FFFFFF" stroke-width="0"/>
		<path d="M193 241 v15 a14 14 90 0 1 -14 14 H91 a14 14 90 0 1 -14 -14 V241 H116" fill="#FFFFFF" stroke="#FFFFFF" stroke-width="0"/>
		<rect x="77" y="214" width="116" height="56" fill="none" rx="14" stroke="#000000" stroke-width="3"/>
		<line x1="77" y1="241" x2="193" y2="241" stroke="#000000" stroke-width="1.5"/>
		<text x="86" y="234.3" fill="#000000" font-family="Arial Black" font-size="13">register</text>
		<text x="86" y="259.2" fill="#000000" font-family="Arial" font-size="14">sender</text>
	</g>
	<text x="224" y="259" fill="#000000" font-family="Arial" font-size="12">1,N</text>
	<text x="141" y="143" fill="#000000" font-family="Arial" font-size="12">1,1</text>
</g>

<!-- Association HAVE -->
<g>
	<line x1="368" y1="242" x2="573" y2="242" stroke="#000000" stroke-width="1.5"/>
	<line x1="573" y1="72" x2="573" y2="242" stroke="#000000" stroke-width="1.5"/>
	<g>
		<path d="M614 205 a14 14 90 0 1 14 14 V232 h-110 V219 a14 14 90 0 1 14 -14" fill="#FFFFFF" stroke="#FFFFFF" stroke-width="0"/>
		<path d="M628 232 v33 a14 14 90 0 1 -14 14 H532 a14 14 90 0 1 -14 -14 V232 H110" fill="#FFFFFF" stroke="#FFFFFF" stroke-width="0"/>
		<rect x="518" y="205" width="110" height="74" fill="none" rx="14" stroke="#000000" stroke-width="3"/>
		<line x1="518" y1="232" x2="628" y2="232" stroke="#000000" stroke-width="1.5"/>
		<text x="543" y="225.3" fill="#000000" font-family="Arial Black" font-size="13">have</text>
		<text x="527" y="250.2" fill="#000000" font-family="Arial" font-size="14">sender</text>
		<text x="527" y="268.2" fill="#000000" font-family="Arial" font-size="14">receiver</text>
	</g>
	<text x="477" y="259" fill="#000000" font-family="Arial" font-size="12">1,N</text>
	<text x="579" y="152" fill="#000000" font-family="Arial" font-size="12">1,1</text>
</g>

<!-- Association OWN -->
<g>
	<line x1="368" y1="242" x2="368" y2="403" stroke="#000000" stroke-width="1.5"/>
	<line x1="573" y1="403" x2="368" y2="403" stroke="#000000" stroke-width="1.5"/>
	<g>
		<path d="M390 375 a14 14 90 0 1 14 14 V402 h-72 V389 a14 14 90 0 1 14 -14" fill="#FFFFFF" stroke="#FFFFFF" stroke-width="0"/>
		<path d="M404 402 v15 a14 14 90 0 1 -14 14 H346 a14 14 90 0 1 -14 -14 V402 H72" fill="#FFFFFF" stroke="#FFFFFF" stroke-width="0"/>
		<rect x="332" y="375" width="72" height="56" fill="none" rx="14" stroke="#000000" stroke-width="3"/>
		<line x1="332" y1="402" x2="404" y2="402" stroke="#000000" stroke-width="1.5"/>
		<text x="342" y="395.3" fill="#000000" font-family="Arial Black" font-size="13">own</text>
	</g>
	<text x="374" y="340" fill="#000000" font-family="Arial" font-size="12">1,1</text>
	<text x="470" y="420" fill="#000000" font-family="Arial" font-size="12">1,1</text>
</g>

<!-- Entity TRANSACTIONGROUP -->
<g>
	<g>
		<rect x="9" y="18" width="252" height="28" fill="#FFFFFF" stroke="none" stroke-width="0" opacity="1"/>
		<rect x="9" y="46" width="252" height="80" fill="#FFFFFF" stroke="none" stroke-width="0" opacity="1"/>
		<rect x="9" y="18" width="252" height="108" fill="none" stroke="#000000" stroke-width="3" opacity="1"/>
		<line x1="9" y1="46" x2="261" y2="46" stroke="#000000" stroke-width="1.5"/>
	</g>
	<text x="26" y="38.3" fill="#000000" font-family="Arial Black" font-size="13">transactionGroup</text>
	<text x="17" y="62.2" fill="#000000" font-family="Arial" font-size="14">idTransactionHistory</text>
	<line x1="17" y1="65" x2="252" y2="65" stroke="#000000" stroke-width="1.2"/>
	<text x="17" y="80.2" fill="#000000" font-family="Arial" font-size="14">method</text>
	<text x="17" y="98.2" fill="#000000" font-family="Arial" font-size="14">description</text>
	<text x="17" y="116.2" fill="#000000" font-family="Arial" font-size="14">date</text>
</g>

<!-- Entity TRANSACTION -->
<g>
	<g>
		<rect x="487" y="9" width="172" height="28" fill="#FFFFFF" stroke="none" stroke-width="0" opacity="1"/>
		<rect x="487" y="37" width="172" height="98" fill="#FFFFFF" stroke="none" stroke-width="0" opacity="1"/>
		<rect x="487" y="9" width="172" height="126" fill="none" stroke="#000000" stroke-width="3" opacity="1"/>
		<line x1="487" y1="37" x2="659" y2="37" stroke="#000000" stroke-width="1.5"/>
	</g>
	<text x="501" y="29.3" fill="#000000" font-family="Arial Black" font-size="13">transaction</text>
	<text x="495" y="53.2" fill="#000000" font-family="Arial" font-size="14">idTransaction</text>
	<line x1="495" y1="56" x2="650" y2="56" stroke="#000000" stroke-width="1.2"/>
	<text x="495" y="71.2" fill="#000000" font-family="Arial" font-size="14">type</text>
	<text x="495" y="89.2" fill="#000000" font-family="Arial" font-size="14">debit</text>
	<text x="495" y="107.2" fill="#000000" font-family="Arial" font-size="14">credit</text>
	<text x="495" y="125.2" fill="#000000" font-family="Arial" font-size="14">date</text>
</g>

<!-- Entity ACCOUNT -->
<g>
	<g>
		<rect x="265" y="161" width="206" height="28" fill="#FFFFFF" stroke="none" stroke-width="0" opacity="1"/>
		<rect x="265" y="189" width="206" height="134" fill="#FFFFFF" stroke="none" stroke-width="0" opacity="1"/>
		<rect x="265" y="161" width="206" height="162" fill="none" stroke="#000000" stroke-width="3" opacity="1"/>
		<line x1="265" y1="189" x2="471" y2="189" stroke="#000000" stroke-width="1.5"/>
	</g>
	<text x="317" y="181.3" fill="#000000" font-family="Arial Black" font-size="13">account</text>
	<text x="273" y="205.2" fill="#000000" font-family="Arial" font-size="14">idAccount</text>
	<line x1="273" y1="208" x2="387" y2="208" stroke="#000000" stroke-width="1.2"/>
	<text x="273" y="223.2" fill="#000000" font-family="Arial" font-size="14">firstname</text>
	<text x="273" y="241.2" fill="#000000" font-family="Arial" font-size="14">lastname</text>
	<text x="273" y="259.2" fill="#000000" font-family="Arial" font-size="14">birthdate</text>
	<text x="273" y="277.2" fill="#000000" font-family="Arial" font-size="14">monthlySalary</text>
	<text x="273" y="295.2" fill="#000000" font-family="Arial" font-size="14">authorizedCredit</text>
	<text x="273" y="313.2" fill="#000000" font-family="Arial" font-size="14">bankName</text>
</g>

<!-- Entity BALANCE -->
<g>
	<g>
		<rect x="508" y="349" width="130" height="28" fill="#FFFFFF" stroke="none" stroke-width="0" opacity="1"/>
		<rect x="508" y="377" width="130" height="80" fill="#FFFFFF" stroke="none" stroke-width="0" opacity="1"/>
		<rect x="508" y="349" width="130" height="108" fill="none" stroke="#000000" stroke-width="3" opacity="1"/>
		<line x1="508" y1="377" x2="638" y2="377" stroke="#000000" stroke-width="1.5"/>
	</g>
	<text x="523" y="369.3" fill="#000000" font-family="Arial Black" font-size="13">balance</text>
	<text x="516" y="393.2" fill="#000000" font-family="Arial" font-size="14">idBalance</text>
	<line x1="516" y1="396" x2="630" y2="396" stroke="#000000" stroke-width="1.2"/>
	<text x="516" y="411.2" fill="#000000" font-family="Arial" font-size="14">type</text>
	<text x="516" y="429.2" fill="#000000" font-family="Arial" font-size="14">amount</text>
	<text x="516" y="447.2" fill="#000000" font-family="Arial" font-size="14">date</text>
</g>
</svg>