<?xml version="1.0" encoding="utf-8"?>
<!-- Generated by Mocodo 4.2.4 -->
<svg width="674" height="484" viewBox="0 0 674 484" xmlns="http://www.w3.org/2000/svg">
<rect x="0" y="0" width="674" height="484" fill="none" stroke="none" stroke-width="0"/>

<!-- Association EXECUTE -->
<g>
	<line x1="130" y1="81" x2="358" y2="81" stroke="#000000" stroke-width="1.5"/>
	<line x1="565" y1="81" x2="358" y2="81" stroke="#000000" stroke-width="1.5"/>
	<g>
		<path d="M404 53 a14 14 90 0 1 14 14 V80 h-120 V67 a14 14 90 0 1 14 -14" fill="#FFFFFF" stroke="#FFFFFF" stroke-width="0"/>
		<path d="M418 80 v15 a14 14 90 0 1 -14 14 H312 a14 14 90 0 1 -14 -14 V80 H120" fill="#FFFFFF" stroke="#FFFFFF" stroke-width="0"/>
		<rect x="298" y="53" width="120" height="56" fill="none" rx="14" stroke="#000000" stroke-width="3"/>
		<line x1="298" y1="80" x2="418" y2="80" stroke="#000000" stroke-width="1.5"/>
		<text x="307" y="73.3" fill="#000000" font-family="Arial Black" font-size="13">execute</text>
	</g>
	<text x="257" y="98" fill="#000000" font-family="Arial" font-size="12">1,N</text>
	<text x="427" y="98" fill="#000000" font-family="Arial" font-size="12">1,1</text>
</g>

<!-- Association REGISTER -->
<g>
	<line x1="358" y1="260" x2="130" y2="260" stroke="#000000" stroke-width="1.5"/>
	<line x1="130" y1="81" x2="130" y2="260" stroke="#000000" stroke-width="1.5"/>
	<g>
		<path d="M174 232 a14 14 90 0 1 14 14 V259 h-116 V246 a14 14 90 0 1 14 -14" fill="#FFFFFF" stroke="#FFFFFF" stroke-width="0"/>
		<path d="M188 259 v15 a14 14 90 0 1 -14 14 H86 a14 14 90 0 1 -14 -14 V259 H116" fill="#FFFFFF" stroke="#FFFFFF" stroke-width="0"/>
		<rect x="72" y="232" width="116" height="56" fill="none" rx="14" stroke="#000000" stroke-width="3"/>
		<line x1="72" y1="259" x2="188" y2="259" stroke="#000000" stroke-width="1.5"/>
		<text x="81" y="252.3" fill="#000000" font-family="Arial Black" font-size="13">register</text>
		<text x="81" y="277.2" fill="#000000" font-family="Arial" font-size="14">sender</text>
	</g>
	<text x="214" y="277" fill="#000000" font-family="Arial" font-size="12">1,N</text>
	<text x="136" y="161" fill="#000000" font-family="Arial" font-size="12">1,1</text>
</g>

<!-- Association HAVE -->
<g>
	<line x1="358" y1="260" x2="565" y2="260" stroke="#000000" stroke-width="1.5"/>
	<line x1="565" y1="81" x2="565" y2="260" stroke="#000000" stroke-width="1.5"/>
	<g>
		<path d="M606 223 a14 14 90 0 1 14 14 V250 h-110 V237 a14 14 90 0 1 14 -14" fill="#FFFFFF" stroke="#FFFFFF" stroke-width="0"/>
		<path d="M620 250 v33 a14 14 90 0 1 -14 14 H524 a14 14 90 0 1 -14 -14 V250 H110" fill="#FFFFFF" stroke="#FFFFFF" stroke-width="0"/>
		<rect x="510" y="223" width="110" height="74" fill="none" rx="14" stroke="#000000" stroke-width="3"/>
		<line x1="510" y1="250" x2="620" y2="250" stroke="#000000" stroke-width="1.5"/>
		<text x="535" y="243.3" fill="#000000" font-family="Arial Black" font-size="13">have</text>
		<text x="519" y="268.2" fill="#000000" font-family="Arial" font-size="14">sender</text>
		<text x="519" y="286.2" fill="#000000" font-family="Arial" font-size="14">receiver</text>
	</g>
	<text x="467" y="277" fill="#000000" font-family="Arial" font-size="12">1,N</text>
	<text x="571" y="170" fill="#000000" font-family="Arial" font-size="12">1,1</text>
</g>

<!-- Association OWN -->
<g>
	<line x1="358" y1="260" x2="358" y2="421" stroke="#000000" stroke-width="1.5"/>
	<line x1="565" y1="421" x2="358" y2="421" stroke="#000000" stroke-width="1.5"/>
	<g>
		<path d="M380 393 a14 14 90 0 1 14 14 V420 h-72 V407 a14 14 90 0 1 14 -14" fill="#FFFFFF" stroke="#FFFFFF" stroke-width="0"/>
		<path d="M394 420 v15 a14 14 90 0 1 -14 14 H336 a14 14 90 0 1 -14 -14 V420 H72" fill="#FFFFFF" stroke="#FFFFFF" stroke-width="0"/>
		<rect x="322" y="393" width="72" height="56" fill="none" rx="14" stroke="#000000" stroke-width="3"/>
		<line x1="322" y1="420" x2="394" y2="420" stroke="#000000" stroke-width="1.5"/>
		<text x="332" y="413.3" fill="#000000" font-family="Arial Black" font-size="13">own</text>
	</g>
	<text x="364" y="358" fill="#000000" font-family="Arial" font-size="12">1,1</text>
	<text x="462" y="438" fill="#000000" font-family="Arial" font-size="12">1,1</text>
</g>

<!-- Entity TRANSACTIONGROUP -->
<g>
	<g>
		<rect x="9" y="18" width="242" height="28" fill="#FFFFFF" stroke="none" stroke-width="0" opacity="1"/>
		<rect x="9" y="46" width="242" height="98" fill="#FFFFFF" stroke="none" stroke-width="0" opacity="1"/>
		<rect x="9" y="18" width="242" height="126" fill="none" stroke="#000000" stroke-width="3" opacity="1"/>
		<line x1="9" y1="46" x2="251" y2="46" stroke="#000000" stroke-width="1.5"/>
	</g>
	<text x="21" y="38.3" fill="#000000" font-family="Arial Black" font-size="13">transactionGroup</text>
	<text x="17" y="62.2" fill="#000000" font-family="Arial" font-size="14">idTransactionGroup</text>
	<line x1="17" y1="65" x2="243" y2="65" stroke="#000000" stroke-width="1.2"/>
	<text x="17" y="80.2" fill="#000000" font-family="Arial" font-size="14">date</text>
	<text x="17" y="98.2" fill="#000000" font-family="Arial" font-size="14">description</text>
	<text x="17" y="116.2" fill="#000000" font-family="Arial" font-size="14">method</text>
</g>

<!-- Entity TRANSACTION -->
<g>
	<g>
		<rect x="465" y="9" width="200" height="28" fill="#FFFFFF" stroke="none" stroke-width="0" opacity="1"/>
		<rect x="465" y="37" width="200" height="116" fill="#FFFFFF" stroke="none" stroke-width="0" opacity="1"/>
		<rect x="465" y="9" width="200" height="144" fill="none" stroke="#000000" stroke-width="3" opacity="1"/>
		<line x1="465" y1="37" x2="665" y2="37" stroke="#000000" stroke-width="1.5"/>
	</g>
	<text x="493" y="29.3" fill="#000000" font-family="Arial Black" font-size="13">transaction</text>
	<text x="473" y="53.2" fill="#000000" font-family="Arial" font-size="14">idTransaction</text>
	<line x1="473" y1="56" x2="628" y2="56" stroke="#000000" stroke-width="1.2"/>
	<text x="473" y="71.2" fill="#000000" font-family="Arial" font-size="14">date</text>
	<text x="473" y="89.2" fill="#000000" font-family="Arial" font-size="14">description</text>
	<text x="473" y="107.2" fill="#000000" font-family="Arial" font-size="14">debit</text>
	<text x="473" y="125.2" fill="#000000" font-family="Arial" font-size="14">credit</text>
	<text x="473" y="143.2" fill="#000000" font-family="Arial" font-size="14">typeTransaction</text>
</g>

<!-- Entity ACCOUNT -->
<g>
	<g>
		<rect x="255" y="179" width="206" height="28" fill="#FFFFFF" stroke="none" stroke-width="0" opacity="1"/>
		<rect x="255" y="207" width="206" height="134" fill="#FFFFFF" stroke="none" stroke-width="0" opacity="1"/>
		<rect x="255" y="179" width="206" height="162" fill="none" stroke="#000000" stroke-width="3" opacity="1"/>
		<line x1="255" y1="207" x2="461" y2="207" stroke="#000000" stroke-width="1.5"/>
	</g>
	<text x="307" y="199.3" fill="#000000" font-family="Arial Black" font-size="13">account</text>
	<text x="263" y="223.2" fill="#000000" font-family="Arial" font-size="14">idAccount</text>
	<line x1="263" y1="226" x2="377" y2="226" stroke="#000000" stroke-width="1.2"/>
	<text x="263" y="241.2" fill="#000000" font-family="Arial" font-size="14">firstname</text>
	<text x="263" y="259.2" fill="#000000" font-family="Arial" font-size="14">lastname</text>
	<text x="263" y="277.2" fill="#000000" font-family="Arial" font-size="14">birthdate</text>
	<text x="263" y="295.2" fill="#000000" font-family="Arial" font-size="14">monthlySalary</text>
	<text x="263" y="313.2" fill="#000000" font-family="Arial" font-size="14">authorizedCredit</text>
	<text x="263" y="331.2" fill="#000000" font-family="Arial" font-size="14">bankName</text>
</g>

<!-- Entity BALANCE -->
<g>
	<g>
		<rect x="500" y="367" width="130" height="28" fill="#FFFFFF" stroke="none" stroke-width="0" opacity="1"/>
		<rect x="500" y="395" width="130" height="80" fill="#FFFFFF" stroke="none" stroke-width="0" opacity="1"/>
		<rect x="500" y="367" width="130" height="108" fill="none" stroke="#000000" stroke-width="3" opacity="1"/>
		<line x1="500" y1="395" x2="630" y2="395" stroke="#000000" stroke-width="1.5"/>
	</g>
	<text x="515" y="387.3" fill="#000000" font-family="Arial Black" font-size="13">balance</text>
	<text x="508" y="411.2" fill="#000000" font-family="Arial" font-size="14">idBalance</text>
	<line x1="508" y1="414" x2="622" y2="414" stroke="#000000" stroke-width="1.2"/>
	<text x="508" y="429.2" fill="#000000" font-family="Arial" font-size="14">date</text>
	<text x="508" y="447.2" fill="#000000" font-family="Arial" font-size="14">amount</text>
	<text x="508" y="465.2" fill="#000000" font-family="Arial" font-size="14">type</text>
</g>
</svg>